<svg width="716" height="720" viewBox="0 0 716 720" fill="none" xmlns="http://www.w3.org/2000/svg">
<path d="M372.375 720C320.875 720 272.625 710.25 227.625 690.75C182.875 671.5 143.375 644.875 109.125 610.875C74.875 576.875 48.125 537.375 28.875 492.375C9.625 447.375 0 399.125 0 347.625C0 308.875 5.625 271.875 16.875 236.625C28.125 201.375 43.875 169 64.125 139.5C84.375 109.75 108.125 83.5 135.375 60.75C162.625 38 192.25 19.75 224.25 6C233.25 2 241.25 1 248.25 3C255.25 5 259.875 9.375 262.125 16.125C264.625 22.625 264 30.625 260.25 40.125C253.5 56.375 248 75.125 243.75 96.375C239.75 117.375 237.75 137.75 237.75 157.5C237.75 227.75 250.625 287.5 276.375 336.75C302.375 385.75 340 423.125 389.25 448.875C438.5 474.625 498.125 487.5 568.125 487.5C587.625 487.5 607.5 485.75 627.75 482.25C648 478.5 664.875 474.25 678.375 469.5C686.875 466.5 694.25 466.25 700.5 468.75C706.75 471.25 710.75 475.875 712.5 482.625C714.5 489.375 713.25 497.375 708.75 506.625C690.25 546.625 664.375 582.75 631.125 615C598.125 647.25 559.625 672.75 515.625 691.5C471.625 710.5 423.875 720 372.375 720Z" fill="url(#paint0_linear_2008_20)"/>
<defs>
<linearGradient id="paint0_linear_2008_20" x1="364.125" y1="-115.125" x2="364.125" y2="801.875" gradientUnits="userSpaceOnUse">
<stop stop-color="#FFCB88" style="stop-color:#FFCB88;stop-color:color(display-p3 1.0000 0.7973 0.5323);stop-opacity:1;"/>
<stop offset="1" stop-color="#FFBB00" style="stop-color:#FFBB00;stop-color:color(display-p3 1.0000 0.7333 0.0000);stop-opacity:1;"/>
</linearGradient>
</defs>
</svg>
